<mxfile host="app.diagrams.net" modified="2023-10-18T11:22:44.849Z" agent="Mozilla/5.0 (Windows NT 10.0; Win64; x64) AppleWebKit/537.36 (KHTML, like Gecko) Chrome/117.0.0.0 Safari/537.36" etag="dLLvrpW60JG11-OWtRZB" version="22.0.4" type="device">
  <diagram name="1 oldal" id="eouyj4CKeiJUBMxlLpfT">
    <mxGraphModel dx="1195" dy="658" grid="1" gridSize="10" guides="1" tooltips="1" connect="1" arrows="1" fold="1" page="1" pageScale="1" pageWidth="4681" pageHeight="3300" math="0" shadow="0">
      <root>
        <mxCell id="0" />
        <mxCell id="1" parent="0" />
        <mxCell id="wa0pbcNeOMviZZzqPdsQ-9" value="" style="ellipse;whiteSpace=wrap;html=1;" vertex="1" parent="1">
          <mxGeometry x="2180" y="205" width="150" height="80" as="geometry" />
        </mxCell>
        <mxCell id="wa0pbcNeOMviZZzqPdsQ-8" value="" style="ellipse;whiteSpace=wrap;html=1;" vertex="1" parent="1">
          <mxGeometry x="3100" y="205" width="150" height="80" as="geometry" />
        </mxCell>
        <mxCell id="wa0pbcNeOMviZZzqPdsQ-7" value="" style="ellipse;whiteSpace=wrap;html=1;" vertex="1" parent="1">
          <mxGeometry x="1525" y="205" width="150" height="80" as="geometry" />
        </mxCell>
        <mxCell id="wa0pbcNeOMviZZzqPdsQ-1" value="THDWDR_fesztivál" style="ellipse;whiteSpace=wrap;html=1;" vertex="1" parent="1">
          <mxGeometry x="510" y="40" width="120" height="80" as="geometry" />
        </mxCell>
        <mxCell id="wa0pbcNeOMviZZzqPdsQ-3" value="Fellépő" style="ellipse;whiteSpace=wrap;html=1;" vertex="1" parent="1">
          <mxGeometry x="1540" y="215" width="120" height="60" as="geometry" />
        </mxCell>
        <mxCell id="wa0pbcNeOMviZZzqPdsQ-4" value="Bár" style="ellipse;whiteSpace=wrap;html=1;" vertex="1" parent="1">
          <mxGeometry x="3115" y="215" width="120" height="60" as="geometry" />
        </mxCell>
        <mxCell id="wa0pbcNeOMviZZzqPdsQ-5" value="Résztvevő" style="ellipse;whiteSpace=wrap;html=1;" vertex="1" parent="1">
          <mxGeometry x="2195" y="215" width="120" height="60" as="geometry" />
        </mxCell>
        <mxCell id="wa0pbcNeOMviZZzqPdsQ-6" value="" style="ellipse;whiteSpace=wrap;html=1;" vertex="1" parent="1">
          <mxGeometry x="908" y="211" width="150" height="80" as="geometry" />
        </mxCell>
        <mxCell id="wa0pbcNeOMviZZzqPdsQ-2" value="Tulajdonos" style="ellipse;whiteSpace=wrap;html=1;" vertex="1" parent="1">
          <mxGeometry x="923" y="221" width="120" height="60" as="geometry" />
        </mxCell>
        <mxCell id="wa0pbcNeOMviZZzqPdsQ-10" value="T_ID" style="rhombus;whiteSpace=wrap;html=1;" vertex="1" parent="1">
          <mxGeometry x="683" y="391" width="80" height="80" as="geometry" />
        </mxCell>
        <mxCell id="wa0pbcNeOMviZZzqPdsQ-11" value="név" style="ellipse;whiteSpace=wrap;html=1;" vertex="1" parent="1">
          <mxGeometry x="788" y="401" width="120" height="60" as="geometry" />
        </mxCell>
        <mxCell id="wa0pbcNeOMviZZzqPdsQ-12" value="adószám" style="ellipse;whiteSpace=wrap;html=1;" vertex="1" parent="1">
          <mxGeometry x="923" y="401" width="120" height="60" as="geometry" />
        </mxCell>
        <mxCell id="wa0pbcNeOMviZZzqPdsQ-13" value="alapítás" style="ellipse;whiteSpace=wrap;html=1;" vertex="1" parent="1">
          <mxGeometry x="1058" y="401" width="120" height="60" as="geometry" />
        </mxCell>
        <mxCell id="wa0pbcNeOMviZZzqPdsQ-14" value="" style="rounded=0;whiteSpace=wrap;html=1;rotation=-90;" vertex="1" parent="1">
          <mxGeometry x="678" y="521" width="90" height="60" as="geometry" />
        </mxCell>
        <mxCell id="wa0pbcNeOMviZZzqPdsQ-15" value="" style="rounded=0;whiteSpace=wrap;html=1;rotation=-90;" vertex="1" parent="1">
          <mxGeometry x="803" y="521" width="90" height="60" as="geometry" />
        </mxCell>
        <mxCell id="wa0pbcNeOMviZZzqPdsQ-16" value="" style="rounded=0;whiteSpace=wrap;html=1;rotation=-90;" vertex="1" parent="1">
          <mxGeometry x="938" y="521" width="90" height="60" as="geometry" />
        </mxCell>
        <mxCell id="wa0pbcNeOMviZZzqPdsQ-17" value="" style="rounded=0;whiteSpace=wrap;html=1;rotation=-90;" vertex="1" parent="1">
          <mxGeometry x="1073" y="521" width="90" height="60" as="geometry" />
        </mxCell>
        <mxCell id="wa0pbcNeOMviZZzqPdsQ-18" value="" style="endArrow=none;html=1;rounded=0;exitX=0.5;exitY=1;exitDx=0;exitDy=0;entryX=1;entryY=0.5;entryDx=0;entryDy=0;" edge="1" parent="1" source="wa0pbcNeOMviZZzqPdsQ-13" target="wa0pbcNeOMviZZzqPdsQ-17">
          <mxGeometry width="50" height="50" relative="1" as="geometry">
            <mxPoint x="1158" y="451" as="sourcePoint" />
            <mxPoint x="1208" y="401" as="targetPoint" />
          </mxGeometry>
        </mxCell>
        <mxCell id="wa0pbcNeOMviZZzqPdsQ-19" value="" style="endArrow=none;html=1;rounded=0;entryX=1;entryY=0.5;entryDx=0;entryDy=0;" edge="1" parent="1" source="wa0pbcNeOMviZZzqPdsQ-12" target="wa0pbcNeOMviZZzqPdsQ-16">
          <mxGeometry width="50" height="50" relative="1" as="geometry">
            <mxPoint x="963" y="475" as="sourcePoint" />
            <mxPoint x="982.5" y="516" as="targetPoint" />
          </mxGeometry>
        </mxCell>
        <mxCell id="wa0pbcNeOMviZZzqPdsQ-20" value="" style="endArrow=none;html=1;rounded=0;exitX=0.5;exitY=1;exitDx=0;exitDy=0;entryX=1;entryY=0.5;entryDx=0;entryDy=0;" edge="1" parent="1" target="wa0pbcNeOMviZZzqPdsQ-15">
          <mxGeometry width="50" height="50" relative="1" as="geometry">
            <mxPoint x="847.5" y="461" as="sourcePoint" />
            <mxPoint x="847.5" y="516" as="targetPoint" />
          </mxGeometry>
        </mxCell>
        <mxCell id="wa0pbcNeOMviZZzqPdsQ-21" value="" style="endArrow=none;html=1;rounded=0;" edge="1" parent="1" source="wa0pbcNeOMviZZzqPdsQ-10" target="wa0pbcNeOMviZZzqPdsQ-14">
          <mxGeometry width="50" height="50" relative="1" as="geometry">
            <mxPoint x="723" y="461" as="sourcePoint" />
            <mxPoint x="723" y="521" as="targetPoint" />
          </mxGeometry>
        </mxCell>
        <mxCell id="wa0pbcNeOMviZZzqPdsQ-22" value="FEL_ID" style="rhombus;whiteSpace=wrap;html=1;" vertex="1" parent="1">
          <mxGeometry x="1415" y="381" width="80" height="80" as="geometry" />
        </mxCell>
        <mxCell id="wa0pbcNeOMviZZzqPdsQ-23" value="név" style="ellipse;whiteSpace=wrap;html=1;" vertex="1" parent="1">
          <mxGeometry x="1515" y="391" width="120" height="60" as="geometry" />
        </mxCell>
        <mxCell id="wa0pbcNeOMviZZzqPdsQ-24" value="ország" style="ellipse;whiteSpace=wrap;html=1;" vertex="1" parent="1">
          <mxGeometry x="1645" y="387" width="120" height="60" as="geometry" />
        </mxCell>
        <mxCell id="wa0pbcNeOMviZZzqPdsQ-25" value="díj" style="ellipse;whiteSpace=wrap;html=1;" vertex="1" parent="1">
          <mxGeometry x="1795" y="391" width="120" height="60" as="geometry" />
        </mxCell>
        <mxCell id="wa0pbcNeOMviZZzqPdsQ-26" value="" style="rounded=0;whiteSpace=wrap;html=1;rotation=-90;" vertex="1" parent="1">
          <mxGeometry x="1410" y="521" width="90" height="60" as="geometry" />
        </mxCell>
        <mxCell id="wa0pbcNeOMviZZzqPdsQ-27" value="" style="rounded=0;whiteSpace=wrap;html=1;rotation=-90;" vertex="1" parent="1">
          <mxGeometry x="1530" y="511" width="90" height="60" as="geometry" />
        </mxCell>
        <mxCell id="wa0pbcNeOMviZZzqPdsQ-28" value="" style="rounded=0;whiteSpace=wrap;html=1;rotation=-90;" vertex="1" parent="1">
          <mxGeometry x="1660" y="511" width="90" height="60" as="geometry" />
        </mxCell>
        <mxCell id="wa0pbcNeOMviZZzqPdsQ-29" value="" style="rounded=0;whiteSpace=wrap;html=1;rotation=-90;" vertex="1" parent="1">
          <mxGeometry x="1810" y="521" width="90" height="60" as="geometry" />
        </mxCell>
        <mxCell id="wa0pbcNeOMviZZzqPdsQ-30" value="" style="endArrow=none;html=1;rounded=0;exitX=0.5;exitY=1;exitDx=0;exitDy=0;entryX=1;entryY=0.5;entryDx=0;entryDy=0;" edge="1" parent="1" source="wa0pbcNeOMviZZzqPdsQ-25" target="wa0pbcNeOMviZZzqPdsQ-29">
          <mxGeometry width="50" height="50" relative="1" as="geometry">
            <mxPoint x="1895" y="441" as="sourcePoint" />
            <mxPoint x="1945" y="391" as="targetPoint" />
          </mxGeometry>
        </mxCell>
        <mxCell id="wa0pbcNeOMviZZzqPdsQ-31" value="" style="endArrow=none;html=1;rounded=0;entryX=1;entryY=0.5;entryDx=0;entryDy=0;" edge="1" parent="1" source="wa0pbcNeOMviZZzqPdsQ-24" target="wa0pbcNeOMviZZzqPdsQ-28">
          <mxGeometry width="50" height="50" relative="1" as="geometry">
            <mxPoint x="1685" y="461" as="sourcePoint" />
            <mxPoint x="1704.5" y="502" as="targetPoint" />
          </mxGeometry>
        </mxCell>
        <mxCell id="wa0pbcNeOMviZZzqPdsQ-32" value="" style="endArrow=none;html=1;rounded=0;exitX=0.5;exitY=1;exitDx=0;exitDy=0;entryX=1;entryY=0.5;entryDx=0;entryDy=0;" edge="1" parent="1" target="wa0pbcNeOMviZZzqPdsQ-27">
          <mxGeometry width="50" height="50" relative="1" as="geometry">
            <mxPoint x="1574.5" y="451" as="sourcePoint" />
            <mxPoint x="1574.5" y="506" as="targetPoint" />
          </mxGeometry>
        </mxCell>
        <mxCell id="wa0pbcNeOMviZZzqPdsQ-33" value="" style="endArrow=none;html=1;rounded=0;" edge="1" parent="1" source="wa0pbcNeOMviZZzqPdsQ-22" target="wa0pbcNeOMviZZzqPdsQ-26">
          <mxGeometry width="50" height="50" relative="1" as="geometry">
            <mxPoint x="1455" y="451" as="sourcePoint" />
            <mxPoint x="1455" y="511" as="targetPoint" />
          </mxGeometry>
        </mxCell>
        <mxCell id="wa0pbcNeOMviZZzqPdsQ-34" value="" style="endArrow=none;html=1;rounded=0;exitX=0.5;exitY=0;exitDx=0;exitDy=0;entryX=0.5;entryY=1;entryDx=0;entryDy=0;" edge="1" parent="1" source="wa0pbcNeOMviZZzqPdsQ-22" target="wa0pbcNeOMviZZzqPdsQ-7">
          <mxGeometry width="50" height="50" relative="1" as="geometry">
            <mxPoint x="1550" y="335" as="sourcePoint" />
            <mxPoint x="1600" y="285" as="targetPoint" />
          </mxGeometry>
        </mxCell>
        <mxCell id="wa0pbcNeOMviZZzqPdsQ-35" value="" style="endArrow=none;html=1;rounded=0;entryX=0.5;entryY=1;entryDx=0;entryDy=0;" edge="1" parent="1" source="wa0pbcNeOMviZZzqPdsQ-23" target="wa0pbcNeOMviZZzqPdsQ-7">
          <mxGeometry width="50" height="50" relative="1" as="geometry">
            <mxPoint x="1355" y="435" as="sourcePoint" />
            <mxPoint x="1595" y="285" as="targetPoint" />
          </mxGeometry>
        </mxCell>
        <mxCell id="wa0pbcNeOMviZZzqPdsQ-36" value="" style="endArrow=none;html=1;rounded=0;entryX=0.5;entryY=1;entryDx=0;entryDy=0;exitX=0.5;exitY=0;exitDx=0;exitDy=0;" edge="1" parent="1" source="wa0pbcNeOMviZZzqPdsQ-24" target="wa0pbcNeOMviZZzqPdsQ-7">
          <mxGeometry width="50" height="50" relative="1" as="geometry">
            <mxPoint x="1590" y="401" as="sourcePoint" />
            <mxPoint x="1610" y="295" as="targetPoint" />
          </mxGeometry>
        </mxCell>
        <mxCell id="wa0pbcNeOMviZZzqPdsQ-37" value="" style="endArrow=none;html=1;rounded=0;entryX=0.5;entryY=1;entryDx=0;entryDy=0;exitX=0.5;exitY=0;exitDx=0;exitDy=0;" edge="1" parent="1" source="wa0pbcNeOMviZZzqPdsQ-25" target="wa0pbcNeOMviZZzqPdsQ-7">
          <mxGeometry width="50" height="50" relative="1" as="geometry">
            <mxPoint x="1600" y="411" as="sourcePoint" />
            <mxPoint x="1620" y="305" as="targetPoint" />
          </mxGeometry>
        </mxCell>
        <mxCell id="wa0pbcNeOMviZZzqPdsQ-38" value="bevétel" style="ellipse;whiteSpace=wrap;html=1;" vertex="1" parent="1">
          <mxGeometry x="1188" y="401" width="120" height="60" as="geometry" />
        </mxCell>
        <mxCell id="wa0pbcNeOMviZZzqPdsQ-39" value="" style="rounded=0;whiteSpace=wrap;html=1;rotation=-90;" vertex="1" parent="1">
          <mxGeometry x="1203" y="521" width="90" height="60" as="geometry" />
        </mxCell>
        <mxCell id="wa0pbcNeOMviZZzqPdsQ-40" value="" style="endArrow=none;html=1;rounded=0;exitX=0.5;exitY=1;exitDx=0;exitDy=0;entryX=1;entryY=0.5;entryDx=0;entryDy=0;" edge="1" parent="1" source="wa0pbcNeOMviZZzqPdsQ-38" target="wa0pbcNeOMviZZzqPdsQ-39">
          <mxGeometry width="50" height="50" relative="1" as="geometry">
            <mxPoint x="1288" y="451" as="sourcePoint" />
            <mxPoint x="1338" y="401" as="targetPoint" />
          </mxGeometry>
        </mxCell>
        <mxCell id="wa0pbcNeOMviZZzqPdsQ-41" value="" style="endArrow=none;html=1;rounded=0;entryX=0.5;entryY=1;entryDx=0;entryDy=0;exitX=0.5;exitY=0;exitDx=0;exitDy=0;" edge="1" parent="1" source="wa0pbcNeOMviZZzqPdsQ-10" target="wa0pbcNeOMviZZzqPdsQ-6">
          <mxGeometry width="50" height="50" relative="1" as="geometry">
            <mxPoint x="1218" y="451" as="sourcePoint" />
            <mxPoint x="1268" y="401" as="targetPoint" />
          </mxGeometry>
        </mxCell>
        <mxCell id="wa0pbcNeOMviZZzqPdsQ-42" value="" style="endArrow=none;html=1;rounded=0;entryX=0.5;entryY=1;entryDx=0;entryDy=0;exitX=0.5;exitY=0;exitDx=0;exitDy=0;" edge="1" parent="1" source="wa0pbcNeOMviZZzqPdsQ-11" target="wa0pbcNeOMviZZzqPdsQ-6">
          <mxGeometry width="50" height="50" relative="1" as="geometry">
            <mxPoint x="728" y="401" as="sourcePoint" />
            <mxPoint x="993" y="301" as="targetPoint" />
          </mxGeometry>
        </mxCell>
        <mxCell id="wa0pbcNeOMviZZzqPdsQ-43" value="" style="endArrow=none;html=1;rounded=0;entryX=0.5;entryY=1;entryDx=0;entryDy=0;exitX=0.5;exitY=0;exitDx=0;exitDy=0;" edge="1" parent="1" source="wa0pbcNeOMviZZzqPdsQ-12" target="wa0pbcNeOMviZZzqPdsQ-6">
          <mxGeometry width="50" height="50" relative="1" as="geometry">
            <mxPoint x="738" y="411" as="sourcePoint" />
            <mxPoint x="1003" y="311" as="targetPoint" />
          </mxGeometry>
        </mxCell>
        <mxCell id="wa0pbcNeOMviZZzqPdsQ-44" value="" style="endArrow=none;html=1;rounded=0;entryX=0.5;entryY=1;entryDx=0;entryDy=0;exitX=0.5;exitY=0;exitDx=0;exitDy=0;" edge="1" parent="1" source="wa0pbcNeOMviZZzqPdsQ-13" target="wa0pbcNeOMviZZzqPdsQ-6">
          <mxGeometry width="50" height="50" relative="1" as="geometry">
            <mxPoint x="748" y="421" as="sourcePoint" />
            <mxPoint x="1013" y="321" as="targetPoint" />
          </mxGeometry>
        </mxCell>
        <mxCell id="wa0pbcNeOMviZZzqPdsQ-45" value="" style="endArrow=none;html=1;rounded=0;entryX=0.5;entryY=1;entryDx=0;entryDy=0;exitX=0.5;exitY=0;exitDx=0;exitDy=0;" edge="1" parent="1" source="wa0pbcNeOMviZZzqPdsQ-38" target="wa0pbcNeOMviZZzqPdsQ-6">
          <mxGeometry width="50" height="50" relative="1" as="geometry">
            <mxPoint x="758" y="431" as="sourcePoint" />
            <mxPoint x="1023" y="331" as="targetPoint" />
          </mxGeometry>
        </mxCell>
        <mxCell id="wa0pbcNeOMviZZzqPdsQ-46" value="" style="ellipse;whiteSpace=wrap;html=1;" vertex="1" parent="1">
          <mxGeometry x="310" y="211" width="150" height="80" as="geometry" />
        </mxCell>
        <mxCell id="wa0pbcNeOMviZZzqPdsQ-47" value="Fesztivál" style="ellipse;whiteSpace=wrap;html=1;" vertex="1" parent="1">
          <mxGeometry x="325" y="221" width="120" height="60" as="geometry" />
        </mxCell>
        <mxCell id="wa0pbcNeOMviZZzqPdsQ-48" value="FESZ_ID" style="rhombus;whiteSpace=wrap;html=1;" vertex="1" parent="1">
          <mxGeometry x="150" y="391" width="80" height="80" as="geometry" />
        </mxCell>
        <mxCell id="wa0pbcNeOMviZZzqPdsQ-49" value="név" style="ellipse;whiteSpace=wrap;html=1;" vertex="1" parent="1">
          <mxGeometry x="250" y="401" width="120" height="60" as="geometry" />
        </mxCell>
        <mxCell id="wa0pbcNeOMviZZzqPdsQ-50" value="" style="rounded=0;whiteSpace=wrap;html=1;rotation=-90;" vertex="1" parent="1">
          <mxGeometry x="265" y="521" width="90" height="60" as="geometry" />
        </mxCell>
        <mxCell id="wa0pbcNeOMviZZzqPdsQ-51" value="" style="endArrow=none;html=1;rounded=0;exitX=0.5;exitY=1;exitDx=0;exitDy=0;entryX=1;entryY=0.5;entryDx=0;entryDy=0;" edge="1" parent="1" target="wa0pbcNeOMviZZzqPdsQ-50">
          <mxGeometry width="50" height="50" relative="1" as="geometry">
            <mxPoint x="309.5" y="461" as="sourcePoint" />
            <mxPoint x="309.5" y="516" as="targetPoint" />
          </mxGeometry>
        </mxCell>
        <mxCell id="wa0pbcNeOMviZZzqPdsQ-52" value="helyszín" style="ellipse;whiteSpace=wrap;html=1;" vertex="1" parent="1">
          <mxGeometry x="380" y="401" width="120" height="60" as="geometry" />
        </mxCell>
        <mxCell id="wa0pbcNeOMviZZzqPdsQ-53" value="" style="rounded=0;whiteSpace=wrap;html=1;rotation=-90;" vertex="1" parent="1">
          <mxGeometry x="395" y="521" width="90" height="60" as="geometry" />
        </mxCell>
        <mxCell id="wa0pbcNeOMviZZzqPdsQ-54" value="" style="endArrow=none;html=1;rounded=0;exitX=0.5;exitY=1;exitDx=0;exitDy=0;entryX=1;entryY=0.5;entryDx=0;entryDy=0;" edge="1" parent="1" target="wa0pbcNeOMviZZzqPdsQ-53">
          <mxGeometry width="50" height="50" relative="1" as="geometry">
            <mxPoint x="439.5" y="461" as="sourcePoint" />
            <mxPoint x="439.5" y="516" as="targetPoint" />
          </mxGeometry>
        </mxCell>
        <mxCell id="wa0pbcNeOMviZZzqPdsQ-55" value="év" style="ellipse;whiteSpace=wrap;html=1;" vertex="1" parent="1">
          <mxGeometry x="510" y="401" width="120" height="60" as="geometry" />
        </mxCell>
        <mxCell id="wa0pbcNeOMviZZzqPdsQ-56" value="" style="rounded=0;whiteSpace=wrap;html=1;rotation=-90;" vertex="1" parent="1">
          <mxGeometry x="525" y="521" width="90" height="60" as="geometry" />
        </mxCell>
        <mxCell id="wa0pbcNeOMviZZzqPdsQ-57" value="" style="endArrow=none;html=1;rounded=0;exitX=0.5;exitY=1;exitDx=0;exitDy=0;entryX=1;entryY=0.5;entryDx=0;entryDy=0;" edge="1" parent="1" target="wa0pbcNeOMviZZzqPdsQ-56">
          <mxGeometry width="50" height="50" relative="1" as="geometry">
            <mxPoint x="569.5" y="461" as="sourcePoint" />
            <mxPoint x="569.5" y="516" as="targetPoint" />
          </mxGeometry>
        </mxCell>
        <mxCell id="wa0pbcNeOMviZZzqPdsQ-61" value="FESZ_T" style="rhombus;whiteSpace=wrap;html=1;" vertex="1" parent="1">
          <mxGeometry x="1310" y="391" width="80" height="80" as="geometry" />
        </mxCell>
        <mxCell id="wa0pbcNeOMviZZzqPdsQ-62" value="" style="endArrow=none;html=1;rounded=0;exitX=0.5;exitY=0;exitDx=0;exitDy=0;" edge="1" parent="1" source="wa0pbcNeOMviZZzqPdsQ-61">
          <mxGeometry width="50" height="50" relative="1" as="geometry">
            <mxPoint x="1000" y="460" as="sourcePoint" />
            <mxPoint x="980" y="290" as="targetPoint" />
          </mxGeometry>
        </mxCell>
        <mxCell id="wa0pbcNeOMviZZzqPdsQ-63" value="FEL_FESZ" style="rhombus;whiteSpace=wrap;html=1;" vertex="1" parent="1">
          <mxGeometry x="1930" y="386" width="80" height="80" as="geometry" />
        </mxCell>
        <mxCell id="wa0pbcNeOMviZZzqPdsQ-64" value="" style="endArrow=none;html=1;rounded=0;exitX=0.5;exitY=0;exitDx=0;exitDy=0;" edge="1" parent="1" source="wa0pbcNeOMviZZzqPdsQ-63">
          <mxGeometry width="50" height="50" relative="1" as="geometry">
            <mxPoint x="1620" y="455" as="sourcePoint" />
            <mxPoint x="1600" y="285" as="targetPoint" />
          </mxGeometry>
        </mxCell>
        <mxCell id="wa0pbcNeOMviZZzqPdsQ-65" value="R_ID" style="rhombus;whiteSpace=wrap;html=1;" vertex="1" parent="1">
          <mxGeometry x="2045.5" y="387" width="80" height="80" as="geometry" />
        </mxCell>
        <mxCell id="wa0pbcNeOMviZZzqPdsQ-66" value="név" style="ellipse;whiteSpace=wrap;html=1;" vertex="1" parent="1">
          <mxGeometry x="2145.5" y="397" width="120" height="60" as="geometry" />
        </mxCell>
        <mxCell id="wa0pbcNeOMviZZzqPdsQ-67" value="diákigazolvány (O)" style="ellipse;whiteSpace=wrap;html=1;" vertex="1" parent="1">
          <mxGeometry x="2275.5" y="393" width="120" height="60" as="geometry" />
        </mxCell>
        <mxCell id="wa0pbcNeOMviZZzqPdsQ-68" value="lakcím" style="ellipse;whiteSpace=wrap;html=1;" vertex="1" parent="1">
          <mxGeometry x="2510" y="401" width="120" height="60" as="geometry" />
        </mxCell>
        <mxCell id="wa0pbcNeOMviZZzqPdsQ-69" value="" style="rounded=0;whiteSpace=wrap;html=1;rotation=-90;" vertex="1" parent="1">
          <mxGeometry x="2040.5" y="527" width="90" height="60" as="geometry" />
        </mxCell>
        <mxCell id="wa0pbcNeOMviZZzqPdsQ-70" value="" style="rounded=0;whiteSpace=wrap;html=1;rotation=-90;" vertex="1" parent="1">
          <mxGeometry x="2160.5" y="517" width="90" height="60" as="geometry" />
        </mxCell>
        <mxCell id="wa0pbcNeOMviZZzqPdsQ-71" value="" style="rounded=0;whiteSpace=wrap;html=1;rotation=-90;" vertex="1" parent="1">
          <mxGeometry x="2290.5" y="517" width="90" height="60" as="geometry" />
        </mxCell>
        <mxCell id="wa0pbcNeOMviZZzqPdsQ-74" value="" style="endArrow=none;html=1;rounded=0;entryX=1;entryY=0.5;entryDx=0;entryDy=0;" edge="1" parent="1" source="wa0pbcNeOMviZZzqPdsQ-67" target="wa0pbcNeOMviZZzqPdsQ-71">
          <mxGeometry width="50" height="50" relative="1" as="geometry">
            <mxPoint x="2315.5" y="467" as="sourcePoint" />
            <mxPoint x="2335" y="508" as="targetPoint" />
          </mxGeometry>
        </mxCell>
        <mxCell id="wa0pbcNeOMviZZzqPdsQ-75" value="" style="endArrow=none;html=1;rounded=0;exitX=0.5;exitY=1;exitDx=0;exitDy=0;entryX=1;entryY=0.5;entryDx=0;entryDy=0;" edge="1" parent="1" target="wa0pbcNeOMviZZzqPdsQ-70">
          <mxGeometry width="50" height="50" relative="1" as="geometry">
            <mxPoint x="2205" y="457" as="sourcePoint" />
            <mxPoint x="2205" y="512" as="targetPoint" />
          </mxGeometry>
        </mxCell>
        <mxCell id="wa0pbcNeOMviZZzqPdsQ-76" value="" style="endArrow=none;html=1;rounded=0;" edge="1" parent="1" source="wa0pbcNeOMviZZzqPdsQ-65" target="wa0pbcNeOMviZZzqPdsQ-69">
          <mxGeometry width="50" height="50" relative="1" as="geometry">
            <mxPoint x="2085.5" y="457" as="sourcePoint" />
            <mxPoint x="2085.5" y="517" as="targetPoint" />
          </mxGeometry>
        </mxCell>
        <mxCell id="wa0pbcNeOMviZZzqPdsQ-77" value="" style="endArrow=none;html=1;rounded=0;exitX=0.5;exitY=0;exitDx=0;exitDy=0;entryX=0.509;entryY=1.001;entryDx=0;entryDy=0;entryPerimeter=0;" edge="1" parent="1" source="wa0pbcNeOMviZZzqPdsQ-65" target="wa0pbcNeOMviZZzqPdsQ-9">
          <mxGeometry width="50" height="50" relative="1" as="geometry">
            <mxPoint x="2180.5" y="341" as="sourcePoint" />
            <mxPoint x="2230.5" y="291" as="targetPoint" />
          </mxGeometry>
        </mxCell>
        <mxCell id="wa0pbcNeOMviZZzqPdsQ-78" value="" style="endArrow=none;html=1;rounded=0;entryX=0.515;entryY=0.987;entryDx=0;entryDy=0;entryPerimeter=0;" edge="1" parent="1" source="wa0pbcNeOMviZZzqPdsQ-66" target="wa0pbcNeOMviZZzqPdsQ-9">
          <mxGeometry width="50" height="50" relative="1" as="geometry">
            <mxPoint x="1985.5" y="441" as="sourcePoint" />
            <mxPoint x="2230.5" y="291" as="targetPoint" />
          </mxGeometry>
        </mxCell>
        <mxCell id="wa0pbcNeOMviZZzqPdsQ-79" value="" style="endArrow=none;html=1;rounded=0;exitX=0.5;exitY=0;exitDx=0;exitDy=0;entryX=0.498;entryY=0.989;entryDx=0;entryDy=0;entryPerimeter=0;" edge="1" parent="1" source="wa0pbcNeOMviZZzqPdsQ-67" target="wa0pbcNeOMviZZzqPdsQ-9">
          <mxGeometry width="50" height="50" relative="1" as="geometry">
            <mxPoint x="2220.5" y="407" as="sourcePoint" />
            <mxPoint x="2260" y="290" as="targetPoint" />
          </mxGeometry>
        </mxCell>
        <mxCell id="wa0pbcNeOMviZZzqPdsQ-80" value="" style="endArrow=none;html=1;rounded=0;exitX=0.5;exitY=0;exitDx=0;exitDy=0;entryX=0.5;entryY=1;entryDx=0;entryDy=0;" edge="1" parent="1" source="wa0pbcNeOMviZZzqPdsQ-68" target="wa0pbcNeOMviZZzqPdsQ-9">
          <mxGeometry width="50" height="50" relative="1" as="geometry">
            <mxPoint x="2230.5" y="417" as="sourcePoint" />
            <mxPoint x="2260" y="280" as="targetPoint" />
          </mxGeometry>
        </mxCell>
        <mxCell id="wa0pbcNeOMviZZzqPdsQ-81" value="FESZ_R" style="rhombus;whiteSpace=wrap;html=1;" vertex="1" parent="1">
          <mxGeometry x="2760.5" y="401" width="80" height="80" as="geometry" />
        </mxCell>
        <mxCell id="wa0pbcNeOMviZZzqPdsQ-82" value="" style="endArrow=none;html=1;rounded=0;exitX=0.5;exitY=0;exitDx=0;exitDy=0;entryX=0.507;entryY=0.999;entryDx=0;entryDy=0;entryPerimeter=0;" edge="1" parent="1" source="wa0pbcNeOMviZZzqPdsQ-81" target="wa0pbcNeOMviZZzqPdsQ-9">
          <mxGeometry width="50" height="50" relative="1" as="geometry">
            <mxPoint x="2250.5" y="461" as="sourcePoint" />
            <mxPoint x="2260" y="290" as="targetPoint" />
          </mxGeometry>
        </mxCell>
        <mxCell id="wa0pbcNeOMviZZzqPdsQ-83" value="település" style="ellipse;whiteSpace=wrap;html=1;" vertex="1" parent="1">
          <mxGeometry x="2380.5" y="540" width="120" height="60" as="geometry" />
        </mxCell>
        <mxCell id="wa0pbcNeOMviZZzqPdsQ-84" value="utca" style="ellipse;whiteSpace=wrap;html=1;" vertex="1" parent="1">
          <mxGeometry x="2510" y="540" width="120" height="60" as="geometry" />
        </mxCell>
        <mxCell id="wa0pbcNeOMviZZzqPdsQ-85" value="házszám" style="ellipse;whiteSpace=wrap;html=1;" vertex="1" parent="1">
          <mxGeometry x="2640.5" y="540" width="120" height="60" as="geometry" />
        </mxCell>
        <mxCell id="wa0pbcNeOMviZZzqPdsQ-86" value="" style="endArrow=none;html=1;rounded=0;entryX=0.5;entryY=1;entryDx=0;entryDy=0;exitX=0.5;exitY=0;exitDx=0;exitDy=0;" edge="1" parent="1" source="wa0pbcNeOMviZZzqPdsQ-83" target="wa0pbcNeOMviZZzqPdsQ-68">
          <mxGeometry width="50" height="50" relative="1" as="geometry">
            <mxPoint x="2370" y="500" as="sourcePoint" />
            <mxPoint x="2420" y="450" as="targetPoint" />
          </mxGeometry>
        </mxCell>
        <mxCell id="wa0pbcNeOMviZZzqPdsQ-87" value="" style="endArrow=none;html=1;rounded=0;entryX=0.5;entryY=1;entryDx=0;entryDy=0;exitX=0.5;exitY=0;exitDx=0;exitDy=0;" edge="1" parent="1" source="wa0pbcNeOMviZZzqPdsQ-84" target="wa0pbcNeOMviZZzqPdsQ-68">
          <mxGeometry width="50" height="50" relative="1" as="geometry">
            <mxPoint x="2450" y="550" as="sourcePoint" />
            <mxPoint x="2495" y="467" as="targetPoint" />
          </mxGeometry>
        </mxCell>
        <mxCell id="wa0pbcNeOMviZZzqPdsQ-88" value="" style="endArrow=none;html=1;rounded=0;entryX=0.5;entryY=1;entryDx=0;entryDy=0;exitX=0.5;exitY=0;exitDx=0;exitDy=0;" edge="1" parent="1" source="wa0pbcNeOMviZZzqPdsQ-85" target="wa0pbcNeOMviZZzqPdsQ-68">
          <mxGeometry width="50" height="50" relative="1" as="geometry">
            <mxPoint x="2460" y="560" as="sourcePoint" />
            <mxPoint x="2505" y="477" as="targetPoint" />
          </mxGeometry>
        </mxCell>
        <mxCell id="wa0pbcNeOMviZZzqPdsQ-91" value="" style="rounded=0;whiteSpace=wrap;html=1;rotation=-90;" vertex="1" parent="1">
          <mxGeometry x="2395.5" y="660" width="90" height="60" as="geometry" />
        </mxCell>
        <mxCell id="wa0pbcNeOMviZZzqPdsQ-92" value="" style="endArrow=none;html=1;rounded=0;" edge="1" parent="1" target="wa0pbcNeOMviZZzqPdsQ-91">
          <mxGeometry width="50" height="50" relative="1" as="geometry">
            <mxPoint x="2441" y="600" as="sourcePoint" />
            <mxPoint x="2440.5" y="650" as="targetPoint" />
          </mxGeometry>
        </mxCell>
        <mxCell id="wa0pbcNeOMviZZzqPdsQ-93" value="" style="rounded=0;whiteSpace=wrap;html=1;rotation=-90;" vertex="1" parent="1">
          <mxGeometry x="2525" y="660" width="90" height="60" as="geometry" />
        </mxCell>
        <mxCell id="wa0pbcNeOMviZZzqPdsQ-94" value="" style="endArrow=none;html=1;rounded=0;" edge="1" parent="1" target="wa0pbcNeOMviZZzqPdsQ-93">
          <mxGeometry width="50" height="50" relative="1" as="geometry">
            <mxPoint x="2570.5" y="600" as="sourcePoint" />
            <mxPoint x="2570" y="650" as="targetPoint" />
          </mxGeometry>
        </mxCell>
        <mxCell id="wa0pbcNeOMviZZzqPdsQ-95" value="" style="rounded=0;whiteSpace=wrap;html=1;rotation=-90;" vertex="1" parent="1">
          <mxGeometry x="2655.5" y="660" width="90" height="60" as="geometry" />
        </mxCell>
        <mxCell id="wa0pbcNeOMviZZzqPdsQ-96" value="" style="endArrow=none;html=1;rounded=0;" edge="1" parent="1" target="wa0pbcNeOMviZZzqPdsQ-95">
          <mxGeometry width="50" height="50" relative="1" as="geometry">
            <mxPoint x="2701" y="600" as="sourcePoint" />
            <mxPoint x="2700.5" y="650" as="targetPoint" />
          </mxGeometry>
        </mxCell>
        <mxCell id="wa0pbcNeOMviZZzqPdsQ-97" value="" style="endArrow=none;html=1;rounded=0;entryX=0.5;entryY=1;entryDx=0;entryDy=0;exitX=0.5;exitY=0;exitDx=0;exitDy=0;" edge="1" parent="1" source="wa0pbcNeOMviZZzqPdsQ-55" target="wa0pbcNeOMviZZzqPdsQ-46">
          <mxGeometry width="50" height="50" relative="1" as="geometry">
            <mxPoint x="600" y="500" as="sourcePoint" />
            <mxPoint x="650" y="450" as="targetPoint" />
          </mxGeometry>
        </mxCell>
        <mxCell id="wa0pbcNeOMviZZzqPdsQ-98" value="" style="endArrow=none;html=1;rounded=0;entryX=0.5;entryY=1;entryDx=0;entryDy=0;exitX=0.5;exitY=0;exitDx=0;exitDy=0;" edge="1" parent="1" source="wa0pbcNeOMviZZzqPdsQ-52" target="wa0pbcNeOMviZZzqPdsQ-46">
          <mxGeometry width="50" height="50" relative="1" as="geometry">
            <mxPoint x="580" y="411" as="sourcePoint" />
            <mxPoint x="395" y="301" as="targetPoint" />
          </mxGeometry>
        </mxCell>
        <mxCell id="wa0pbcNeOMviZZzqPdsQ-99" value="" style="endArrow=none;html=1;rounded=0;entryX=0.5;entryY=1;entryDx=0;entryDy=0;exitX=0.5;exitY=0;exitDx=0;exitDy=0;" edge="1" parent="1" source="wa0pbcNeOMviZZzqPdsQ-49" target="wa0pbcNeOMviZZzqPdsQ-46">
          <mxGeometry width="50" height="50" relative="1" as="geometry">
            <mxPoint x="590" y="421" as="sourcePoint" />
            <mxPoint x="405" y="311" as="targetPoint" />
          </mxGeometry>
        </mxCell>
        <mxCell id="wa0pbcNeOMviZZzqPdsQ-100" value="" style="endArrow=none;html=1;rounded=0;entryX=0.5;entryY=1;entryDx=0;entryDy=0;exitX=0.5;exitY=0;exitDx=0;exitDy=0;" edge="1" parent="1" source="wa0pbcNeOMviZZzqPdsQ-48" target="wa0pbcNeOMviZZzqPdsQ-46">
          <mxGeometry width="50" height="50" relative="1" as="geometry">
            <mxPoint x="600" y="431" as="sourcePoint" />
            <mxPoint x="415" y="321" as="targetPoint" />
          </mxGeometry>
        </mxCell>
        <mxCell id="wa0pbcNeOMviZZzqPdsQ-101" value="B_ID" style="rhombus;whiteSpace=wrap;html=1;" vertex="1" parent="1">
          <mxGeometry x="2965" y="377" width="80" height="80" as="geometry" />
        </mxCell>
        <mxCell id="wa0pbcNeOMviZZzqPdsQ-102" value="név" style="ellipse;whiteSpace=wrap;html=1;" vertex="1" parent="1">
          <mxGeometry x="3065" y="387" width="120" height="60" as="geometry" />
        </mxCell>
        <mxCell id="wa0pbcNeOMviZZzqPdsQ-103" value="ital" style="ellipse;whiteSpace=wrap;html=1;" vertex="1" parent="1">
          <mxGeometry x="3195" y="383" width="120" height="60" as="geometry" />
        </mxCell>
        <mxCell id="wa0pbcNeOMviZZzqPdsQ-104" value="" style="rounded=0;whiteSpace=wrap;html=1;rotation=-90;" vertex="1" parent="1">
          <mxGeometry x="2960" y="517" width="90" height="60" as="geometry" />
        </mxCell>
        <mxCell id="wa0pbcNeOMviZZzqPdsQ-105" value="" style="rounded=0;whiteSpace=wrap;html=1;rotation=-90;" vertex="1" parent="1">
          <mxGeometry x="3080" y="507" width="90" height="60" as="geometry" />
        </mxCell>
        <mxCell id="wa0pbcNeOMviZZzqPdsQ-106" value="" style="rounded=0;whiteSpace=wrap;html=1;rotation=-90;" vertex="1" parent="1">
          <mxGeometry x="3210" y="507" width="90" height="60" as="geometry" />
        </mxCell>
        <mxCell id="wa0pbcNeOMviZZzqPdsQ-107" value="" style="endArrow=none;html=1;rounded=0;entryX=1;entryY=0.5;entryDx=0;entryDy=0;" edge="1" parent="1" source="wa0pbcNeOMviZZzqPdsQ-103" target="wa0pbcNeOMviZZzqPdsQ-106">
          <mxGeometry width="50" height="50" relative="1" as="geometry">
            <mxPoint x="3235" y="457" as="sourcePoint" />
            <mxPoint x="3254.5" y="498" as="targetPoint" />
          </mxGeometry>
        </mxCell>
        <mxCell id="wa0pbcNeOMviZZzqPdsQ-108" value="" style="endArrow=none;html=1;rounded=0;exitX=0.5;exitY=1;exitDx=0;exitDy=0;entryX=1;entryY=0.5;entryDx=0;entryDy=0;" edge="1" parent="1" target="wa0pbcNeOMviZZzqPdsQ-105">
          <mxGeometry width="50" height="50" relative="1" as="geometry">
            <mxPoint x="3124.5" y="447" as="sourcePoint" />
            <mxPoint x="3124.5" y="502" as="targetPoint" />
          </mxGeometry>
        </mxCell>
        <mxCell id="wa0pbcNeOMviZZzqPdsQ-109" value="" style="endArrow=none;html=1;rounded=0;" edge="1" parent="1" source="wa0pbcNeOMviZZzqPdsQ-101" target="wa0pbcNeOMviZZzqPdsQ-104">
          <mxGeometry width="50" height="50" relative="1" as="geometry">
            <mxPoint x="3005" y="447" as="sourcePoint" />
            <mxPoint x="3005" y="507" as="targetPoint" />
          </mxGeometry>
        </mxCell>
        <mxCell id="wa0pbcNeOMviZZzqPdsQ-110" value="" style="endArrow=none;html=1;rounded=0;exitX=0.5;exitY=0;exitDx=0;exitDy=0;entryX=0.5;entryY=1;entryDx=0;entryDy=0;" edge="1" parent="1" source="wa0pbcNeOMviZZzqPdsQ-101" target="wa0pbcNeOMviZZzqPdsQ-8">
          <mxGeometry width="50" height="50" relative="1" as="geometry">
            <mxPoint x="3100" y="331" as="sourcePoint" />
            <mxPoint x="3175.5" y="275" as="targetPoint" />
          </mxGeometry>
        </mxCell>
        <mxCell id="wa0pbcNeOMviZZzqPdsQ-111" value="" style="endArrow=none;html=1;rounded=0;entryX=0.5;entryY=1;entryDx=0;entryDy=0;" edge="1" parent="1" source="wa0pbcNeOMviZZzqPdsQ-102" target="wa0pbcNeOMviZZzqPdsQ-8">
          <mxGeometry width="50" height="50" relative="1" as="geometry">
            <mxPoint x="2905" y="431" as="sourcePoint" />
            <mxPoint x="3177" y="270" as="targetPoint" />
          </mxGeometry>
        </mxCell>
        <mxCell id="wa0pbcNeOMviZZzqPdsQ-112" value="" style="endArrow=none;html=1;rounded=0;exitX=0.5;exitY=0;exitDx=0;exitDy=0;entryX=0.5;entryY=1;entryDx=0;entryDy=0;" edge="1" parent="1" source="wa0pbcNeOMviZZzqPdsQ-103" target="wa0pbcNeOMviZZzqPdsQ-8">
          <mxGeometry width="50" height="50" relative="1" as="geometry">
            <mxPoint x="3140" y="397" as="sourcePoint" />
            <mxPoint x="3174.5" y="274" as="targetPoint" />
          </mxGeometry>
        </mxCell>
        <mxCell id="wa0pbcNeOMviZZzqPdsQ-113" value="cég" style="ellipse;whiteSpace=wrap;html=1;" vertex="1" parent="1">
          <mxGeometry x="3320" y="380" width="120" height="60" as="geometry" />
        </mxCell>
        <mxCell id="wa0pbcNeOMviZZzqPdsQ-114" value="" style="rounded=0;whiteSpace=wrap;html=1;rotation=-90;" vertex="1" parent="1">
          <mxGeometry x="3335" y="504" width="90" height="60" as="geometry" />
        </mxCell>
        <mxCell id="wa0pbcNeOMviZZzqPdsQ-115" value="" style="endArrow=none;html=1;rounded=0;entryX=1;entryY=0.5;entryDx=0;entryDy=0;" edge="1" parent="1" source="wa0pbcNeOMviZZzqPdsQ-113" target="wa0pbcNeOMviZZzqPdsQ-114">
          <mxGeometry width="50" height="50" relative="1" as="geometry">
            <mxPoint x="3360" y="454" as="sourcePoint" />
            <mxPoint x="3379.5" y="495" as="targetPoint" />
          </mxGeometry>
        </mxCell>
        <mxCell id="wa0pbcNeOMviZZzqPdsQ-116" value="" style="endArrow=none;html=1;rounded=0;exitX=0.5;exitY=0;exitDx=0;exitDy=0;entryX=0.5;entryY=1;entryDx=0;entryDy=0;" edge="1" parent="1" source="wa0pbcNeOMviZZzqPdsQ-113" target="wa0pbcNeOMviZZzqPdsQ-8">
          <mxGeometry width="50" height="50" relative="1" as="geometry">
            <mxPoint x="3265" y="394" as="sourcePoint" />
            <mxPoint x="3300" y="282" as="targetPoint" />
          </mxGeometry>
        </mxCell>
        <mxCell id="wa0pbcNeOMviZZzqPdsQ-117" value="FESZ_B" style="rhombus;whiteSpace=wrap;html=1;" vertex="1" parent="1">
          <mxGeometry x="3460" y="377" width="80" height="80" as="geometry" />
        </mxCell>
        <mxCell id="wa0pbcNeOMviZZzqPdsQ-118" value="" style="endArrow=none;html=1;rounded=0;exitX=0.5;exitY=0;exitDx=0;exitDy=0;entryX=0.5;entryY=1;entryDx=0;entryDy=0;" edge="1" parent="1" source="wa0pbcNeOMviZZzqPdsQ-117" target="wa0pbcNeOMviZZzqPdsQ-8">
          <mxGeometry width="50" height="50" relative="1" as="geometry">
            <mxPoint x="2974.5" y="431" as="sourcePoint" />
            <mxPoint x="2980" y="255" as="targetPoint" />
          </mxGeometry>
        </mxCell>
        <mxCell id="wa0pbcNeOMviZZzqPdsQ-119" value="" style="ellipse;whiteSpace=wrap;html=1;" vertex="1" parent="1">
          <mxGeometry x="3720" y="205" width="150" height="80" as="geometry" />
        </mxCell>
        <mxCell id="wa0pbcNeOMviZZzqPdsQ-120" value="Alkalmazott" style="ellipse;whiteSpace=wrap;html=1;" vertex="1" parent="1">
          <mxGeometry x="3735" y="215" width="120" height="60" as="geometry" />
        </mxCell>
        <mxCell id="wa0pbcNeOMviZZzqPdsQ-121" value="A_ID" style="rhombus;whiteSpace=wrap;html=1;" vertex="1" parent="1">
          <mxGeometry x="3585" y="377" width="80" height="80" as="geometry" />
        </mxCell>
        <mxCell id="wa0pbcNeOMviZZzqPdsQ-122" value="név" style="ellipse;whiteSpace=wrap;html=1;" vertex="1" parent="1">
          <mxGeometry x="3685" y="387" width="120" height="60" as="geometry" />
        </mxCell>
        <mxCell id="wa0pbcNeOMviZZzqPdsQ-123" value="műszak" style="ellipse;whiteSpace=wrap;html=1;" vertex="1" parent="1">
          <mxGeometry x="3815" y="383" width="120" height="60" as="geometry" />
        </mxCell>
        <mxCell id="wa0pbcNeOMviZZzqPdsQ-124" value="" style="rounded=0;whiteSpace=wrap;html=1;rotation=-90;" vertex="1" parent="1">
          <mxGeometry x="3580" y="517" width="90" height="60" as="geometry" />
        </mxCell>
        <mxCell id="wa0pbcNeOMviZZzqPdsQ-125" value="" style="rounded=0;whiteSpace=wrap;html=1;rotation=-90;" vertex="1" parent="1">
          <mxGeometry x="3700" y="507" width="90" height="60" as="geometry" />
        </mxCell>
        <mxCell id="wa0pbcNeOMviZZzqPdsQ-126" value="" style="rounded=0;whiteSpace=wrap;html=1;rotation=-90;" vertex="1" parent="1">
          <mxGeometry x="3830" y="507" width="90" height="60" as="geometry" />
        </mxCell>
        <mxCell id="wa0pbcNeOMviZZzqPdsQ-127" value="" style="endArrow=none;html=1;rounded=0;entryX=1;entryY=0.5;entryDx=0;entryDy=0;" edge="1" parent="1" source="wa0pbcNeOMviZZzqPdsQ-123" target="wa0pbcNeOMviZZzqPdsQ-126">
          <mxGeometry width="50" height="50" relative="1" as="geometry">
            <mxPoint x="3855" y="457" as="sourcePoint" />
            <mxPoint x="3874.5" y="498" as="targetPoint" />
          </mxGeometry>
        </mxCell>
        <mxCell id="wa0pbcNeOMviZZzqPdsQ-128" value="" style="endArrow=none;html=1;rounded=0;exitX=0.5;exitY=1;exitDx=0;exitDy=0;entryX=1;entryY=0.5;entryDx=0;entryDy=0;" edge="1" parent="1" target="wa0pbcNeOMviZZzqPdsQ-125">
          <mxGeometry width="50" height="50" relative="1" as="geometry">
            <mxPoint x="3744.5" y="447" as="sourcePoint" />
            <mxPoint x="3744.5" y="502" as="targetPoint" />
          </mxGeometry>
        </mxCell>
        <mxCell id="wa0pbcNeOMviZZzqPdsQ-129" value="" style="endArrow=none;html=1;rounded=0;" edge="1" parent="1" source="wa0pbcNeOMviZZzqPdsQ-121" target="wa0pbcNeOMviZZzqPdsQ-124">
          <mxGeometry width="50" height="50" relative="1" as="geometry">
            <mxPoint x="3625" y="447" as="sourcePoint" />
            <mxPoint x="3625" y="507" as="targetPoint" />
          </mxGeometry>
        </mxCell>
        <mxCell id="wa0pbcNeOMviZZzqPdsQ-130" value="" style="endArrow=none;html=1;rounded=0;exitX=0.5;exitY=0;exitDx=0;exitDy=0;entryX=0.5;entryY=1;entryDx=0;entryDy=0;" edge="1" parent="1" source="wa0pbcNeOMviZZzqPdsQ-121" target="wa0pbcNeOMviZZzqPdsQ-119">
          <mxGeometry width="50" height="50" relative="1" as="geometry">
            <mxPoint x="3720" y="331" as="sourcePoint" />
            <mxPoint x="3795.5" y="275" as="targetPoint" />
          </mxGeometry>
        </mxCell>
        <mxCell id="wa0pbcNeOMviZZzqPdsQ-131" value="" style="endArrow=none;html=1;rounded=0;entryX=0.5;entryY=1;entryDx=0;entryDy=0;" edge="1" parent="1" source="wa0pbcNeOMviZZzqPdsQ-122" target="wa0pbcNeOMviZZzqPdsQ-119">
          <mxGeometry width="50" height="50" relative="1" as="geometry">
            <mxPoint x="3525" y="431" as="sourcePoint" />
            <mxPoint x="3797" y="270" as="targetPoint" />
          </mxGeometry>
        </mxCell>
        <mxCell id="wa0pbcNeOMviZZzqPdsQ-132" value="" style="endArrow=none;html=1;rounded=0;exitX=0.5;exitY=0;exitDx=0;exitDy=0;entryX=0.5;entryY=1;entryDx=0;entryDy=0;" edge="1" parent="1" source="wa0pbcNeOMviZZzqPdsQ-123" target="wa0pbcNeOMviZZzqPdsQ-119">
          <mxGeometry width="50" height="50" relative="1" as="geometry">
            <mxPoint x="3760" y="397" as="sourcePoint" />
            <mxPoint x="3794.5" y="274" as="targetPoint" />
          </mxGeometry>
        </mxCell>
        <mxCell id="wa0pbcNeOMviZZzqPdsQ-133" value="fizetés" style="ellipse;whiteSpace=wrap;html=1;" vertex="1" parent="1">
          <mxGeometry x="3940" y="380" width="120" height="60" as="geometry" />
        </mxCell>
        <mxCell id="wa0pbcNeOMviZZzqPdsQ-134" value="" style="rounded=0;whiteSpace=wrap;html=1;rotation=-90;" vertex="1" parent="1">
          <mxGeometry x="3955" y="504" width="90" height="60" as="geometry" />
        </mxCell>
        <mxCell id="wa0pbcNeOMviZZzqPdsQ-135" value="" style="endArrow=none;html=1;rounded=0;entryX=1;entryY=0.5;entryDx=0;entryDy=0;" edge="1" parent="1" source="wa0pbcNeOMviZZzqPdsQ-133" target="wa0pbcNeOMviZZzqPdsQ-134">
          <mxGeometry width="50" height="50" relative="1" as="geometry">
            <mxPoint x="3980" y="454" as="sourcePoint" />
            <mxPoint x="3999.5" y="495" as="targetPoint" />
          </mxGeometry>
        </mxCell>
        <mxCell id="wa0pbcNeOMviZZzqPdsQ-136" value="" style="endArrow=none;html=1;rounded=0;exitX=0.5;exitY=0;exitDx=0;exitDy=0;entryX=0.5;entryY=1;entryDx=0;entryDy=0;" edge="1" parent="1" source="wa0pbcNeOMviZZzqPdsQ-133" target="wa0pbcNeOMviZZzqPdsQ-119">
          <mxGeometry width="50" height="50" relative="1" as="geometry">
            <mxPoint x="3885" y="394" as="sourcePoint" />
            <mxPoint x="3920" y="282" as="targetPoint" />
          </mxGeometry>
        </mxCell>
        <mxCell id="wa0pbcNeOMviZZzqPdsQ-137" value="FESZ_B" style="rhombus;whiteSpace=wrap;html=1;" vertex="1" parent="1">
          <mxGeometry x="4080" y="377" width="80" height="80" as="geometry" />
        </mxCell>
        <mxCell id="wa0pbcNeOMviZZzqPdsQ-138" value="" style="endArrow=none;html=1;rounded=0;exitX=0.5;exitY=0;exitDx=0;exitDy=0;entryX=0.5;entryY=1;entryDx=0;entryDy=0;" edge="1" parent="1" source="wa0pbcNeOMviZZzqPdsQ-137" target="wa0pbcNeOMviZZzqPdsQ-119">
          <mxGeometry width="50" height="50" relative="1" as="geometry">
            <mxPoint x="3594.5" y="431" as="sourcePoint" />
            <mxPoint x="3600" y="255" as="targetPoint" />
          </mxGeometry>
        </mxCell>
      </root>
    </mxGraphModel>
  </diagram>
</mxfile>
